<svg width="512" height="512" viewBox="0 0 512 512" fill="none" xmlns="http://www.w3.org/2000/svg">
  <rect width="512" height="512" rx="120" fill="#0F1724"/>
  <rect x="46" y="46" width="420" height="420" rx="104" fill="url(#bg)"/>
  <path d="M256 106C260.417 106 264 109.583 264 114V140.465C281.379 141.804 297.8 146.531 312.748 154.062L331.486 135.324C334.61 132.2 339.675 132.2 342.799 135.324L376.676 169.201C379.8 172.325 379.8 177.39 376.676 180.514L357.938 199.252C365.469 214.2 370.196 230.621 371.535 248H398C402.417 248 406 251.583 406 256V304C406 308.417 402.417 312 398 312H371.535C370.196 329.379 365.469 345.8 357.938 360.748L376.676 379.486C379.8 382.61 379.8 387.675 376.676 390.799L342.799 424.676C339.675 427.8 334.61 427.8 331.486 424.676L312.748 405.938C297.8 413.469 281.379 418.196 264 419.535V446C264 450.417 260.417 454 256 454H208C203.583 454 200 450.417 200 446V419.535C182.621 418.196 166.2 413.469 151.252 405.938L132.514 424.676C129.39 427.8 124.325 427.8 121.201 424.676L87.324 390.799C84.2 387.675 84.2 382.61 87.324 379.486L106.062 360.748C98.5311 345.8 93.8042 329.379 92.4654 312H66C61.5817 312 58 308.417 58 304V256C58 251.583 61.5817 248 66 248H92.4654C93.8042 230.621 98.5311 214.2 106.062 199.252L87.324 180.514C84.2 177.39 84.2 172.325 87.324 169.201L121.201 135.324C124.325 132.2 129.39 132.2 132.514 135.324L151.252 154.062C166.2 146.531 182.621 141.804 200 140.465V114C200 109.583 203.583 106 208 106H256Z" fill="#1B2B46" fill-opacity="0.72"/>
  <circle cx="232" cy="280" r="102" fill="#0F1724" stroke="#77A0FF" stroke-width="16"/>
  <path d="M170 338V178H218L250 254L282 178H330V338H292V236L258 318H240L208 236V338H170Z" fill="#E6EDF8"/>
  <path d="M318 338V178H356V240L402 178H448L392 250L450 338H404L364 276L356 285V338H318Z" fill="#77A0FF"/>
  <defs>
    <linearGradient id="bg" x1="46" y1="46" x2="466" y2="466" gradientUnits="userSpaceOnUse">
      <stop stop-color="#16243A"/>
      <stop offset="1" stop-color="#0A1220"/>
    </linearGradient>
  </defs>
</svg>
